<?xml version="1.0" standalone="no"?>
<!DOCTYPE svg PUBLIC "-//W3C//DTD SVG 20010904//EN"
 "http://www.w3.org/TR/2001/REC-SVG-20010904/DTD/svg10.dtd">
<svg version="1.0" xmlns="http://www.w3.org/2000/svg"
 width="512.000000pt" height="512.000000pt" viewBox="0 0 512.000000 512.000000"
 preserveAspectRatio="xMidYMid meet">
<metadata>
Created by potrace 1.14, written by Peter Selinger 2001-2017
</metadata>
<g transform="translate(0.000000,512.000000) scale(0.100000,-0.100000)"
fill="#000000" stroke="none">
<path d="M2369 5116 c-2 -2 -35 -7 -74 -10 -38 -4 -81 -9 -95 -11 -76 -13
-100 -17 -145 -26 -27 -6 -61 -13 -75 -15 -83 -16 -316 -90 -337 -107 -7 -5
-13 -7 -13 -4 0 6 -48 -15 -175 -73 -292 -136 -617 -384 -825 -630 -30 -36
-57 -67 -60 -70 -3 -3 -26 -32 -51 -65 -148 -194 -282 -441 -364 -665 -35 -97
-91 -296 -101 -357 -5 -26 -9 -50 -9 -53 -3 -11 -15 -76 -20 -105 -27 -170
-28 -562 0 -720 2 -16 7 -43 9 -60 16 -101 69 -325 82 -347 3 -4 7 -16 9 -25
6 -30 52 -154 80 -218 253 -579 684 -1029 1247 -1303 48 -23 89 -42 93 -42 3
0 24 -9 48 -19 52 -24 264 -97 303 -105 16 -3 66 -14 112 -25 45 -10 85 -19
87 -20 3 0 20 -2 38 -5 152 -25 229 -31 427 -31 102 0 217 3 255 8 125 14 140
16 170 22 17 3 44 8 60 11 87 15 276 68 385 109 69 25 131 47 138 47 6 1 12 5
12 10 0 4 5 8 11 8 6 0 52 21 103 46 499 250 899 645 1144 1129 73 146 152
337 152 368 0 4 7 21 15 37 9 17 13 30 11 30 -3 0 1 18 9 40 8 22 12 40 10 40
-3 0 0 11 5 25 5 14 12 36 15 48 12 54 24 115 30 157 4 25 9 56 11 70 19 120
26 486 11 610 -4 36 -9 81 -12 100 -4 35 -5 45 -24 135 -6 28 -13 61 -15 75
-11 56 -50 190 -78 270 -113 318 -267 584 -488 842 -106 124 -364 356 -457
410 -18 11 -33 24 -33 29 0 5 -6 9 -13 9 -7 0 -31 13 -53 30 -21 16 -43 30
-48 30 -5 0 -17 6 -25 14 -20 18 -257 137 -331 166 -47 19 -224 81 -255 90 -5
1 -14 4 -20 6 -71 21 -247 57 -345 70 -25 3 -56 8 -70 11 -28 5 -466 14 -471
9z"/>
</g>
</svg>
